<svg width="24" height="22" viewBox="0 0 24 22" fill="none" xmlns="http://www.w3.org/2000/svg">
<path d="M23.1628 5.58145H16.4651C16.0075 5.58145 15.6279 5.20191 15.6279 4.74424C15.6279 4.28656 16.0075 3.90703 16.4651 3.90703H23.1628C23.6205 3.90703 24 4.28656 24 4.74424C24 5.20191 23.6205 5.58145 23.1628 5.58145Z" fill="#888888"/>
<path d="M5.30233 5.58145H0.837209C0.379535 5.58145 0 5.20191 0 4.74424C0 4.28656 0.379535 3.90703 0.837209 3.90703H5.30233C5.76 3.90703 6.13953 4.28656 6.13953 4.74424C6.13953 5.20191 5.76 5.58145 5.30233 5.58145Z" fill="#888888"/>
<path d="M9.76762 9.48837C7.15553 9.48837 5.02344 7.35628 5.02344 4.74419C5.02344 2.13209 7.15553 0 9.76762 0C12.3797 0 14.5118 2.13209 14.5118 4.74419C14.5118 7.35628 12.3797 9.48837 9.76762 9.48837ZM9.76762 1.67442C8.07088 1.67442 6.69786 3.04744 6.69786 4.74419C6.69786 6.44093 8.07088 7.81395 9.76762 7.81395C11.4644 7.81395 12.8374 6.44093 12.8374 4.74419C12.8374 3.04744 11.4644 1.67442 9.76762 1.67442Z" fill="#888888"/>
<path d="M23.1629 17.8605H18.6978C18.2401 17.8605 17.8606 17.481 17.8606 17.0233C17.8606 16.5656 18.2401 16.1861 18.6978 16.1861H23.1629C23.6206 16.1861 24.0001 16.5656 24.0001 17.0233C24.0001 17.481 23.6206 17.8605 23.1629 17.8605Z" fill="#888888"/>
<path d="M7.53488 17.8605H0.837209C0.379535 17.8605 0 17.481 0 17.0233C0 16.5656 0.379535 16.1861 0.837209 16.1861H7.53488C7.99256 16.1861 8.37209 16.5656 8.37209 17.0233C8.37209 17.481 7.99256 17.8605 7.53488 17.8605Z" fill="#888888"/>
<path d="M14.2325 21.7674C11.6204 21.7674 9.48828 19.6353 9.48828 17.0232C9.48828 14.4111 11.6204 12.279 14.2325 12.279C16.8446 12.279 18.9767 14.4111 18.9767 17.0232C18.9767 19.6353 16.8446 21.7674 14.2325 21.7674ZM14.2325 13.9535C12.5357 13.9535 11.1627 15.3265 11.1627 17.0232C11.1627 18.72 12.5357 20.093 14.2325 20.093C15.9292 20.093 17.3022 18.72 17.3022 17.0232C17.3022 15.3265 15.9292 13.9535 14.2325 13.9535Z" fill="#888888"/>
</svg>
